<?xml version="1.0" standalone="no"?>
<!DOCTYPE svg PUBLIC "-//W3C//DTD SVG 20010904//EN"
 "http://www.w3.org/TR/2001/REC-SVG-20010904/DTD/svg10.dtd">
<svg version="1.0" xmlns="http://www.w3.org/2000/svg"
 width="115.000000pt" height="79.000000pt" viewBox="0 0 115.000000 79.000000"
 preserveAspectRatio="xMidYMid meet">
<metadata>
Created by potrace 1.15, written by Peter Selinger 2001-2017
</metadata>
<g transform="translate(0.000000,79.000000) scale(0.100000,-0.100000)"
fill="#000000" stroke="none">
<path d="M565 734 c-147 -36 -316 -153 -380 -263 l-30 -51 -77 0 -78 0 0 -30
0 -30 65 0 65 0 0 -62 c1 -156 108 -248 300 -256 86 -4 105 -1 185 26 50 17
112 43 139 58 62 35 167 133 203 190 l28 44 68 0 67 0 0 30 c0 30 -1 30 -54
30 l-53 0 0 68 c1 109 -46 180 -153 230 -68 32 -202 40 -295 16z"/>
</g>
</svg>
