<?xml version="1.0" standalone="no"?>
<!DOCTYPE svg PUBLIC "-//W3C//DTD SVG 20010904//EN"
 "http://www.w3.org/TR/2001/REC-SVG-20010904/DTD/svg10.dtd">
<svg version="1.0" xmlns="http://www.w3.org/2000/svg"
 width="101.000000pt" height="79.000000pt" viewBox="0 0 101.000000 79.000000"
 preserveAspectRatio="xMidYMid meet">
<metadata>
Created by potrace 1.15, written by Peter Selinger 2001-2017
</metadata>
<g transform="translate(0.000000,79.000000) scale(0.100000,-0.100000)"
fill="#000000" stroke="none">
<path d="M495 734 c-107 -26 -219 -90 -299 -168 -89 -87 -128 -161 -134 -252
-5 -79 11 -126 60 -180 56 -61 122 -87 238 -92 86 -4 104 -1 185 26 117 39
174 72 251 144 77 73 118 135 139 213 34 128 -18 233 -145 293 -68 32 -202 40
-295 16z"/>
</g>
</svg>
